<svg id="Layer_5" data-name="Layer 5" xmlns="http://www.w3.org/2000/svg" viewBox="0 0 256 227.23"><defs><style>.cls-1{fill:#00d8ff;}.cls-2{fill:#fff;}</style></defs><title>preact_logo</title><path class="cls-1" d="M272.9,133.08q-7.56-14.33-16-29-8.28-14.3-17-27.89-8.5-13.32-17.3-25.84-15.27-1.43-31-2.18-16.37-.77-33.06-0.78t-32.82.76q-15.75.73-31.07,2.14Q85.72,62.88,77.17,76.22q-8.77,13.69-17.06,28h0q-8.28,14.35-15.75,28.83-7.24,14-13.67,28,6.45,14,13.73,28.08,7.48,14.45,15.78,28.8h0q8.49,14.67,17.52,28.67Q86.18,259.74,95,272.17q15.1,1.22,31,1.84t32.55,0.62q17.07,0,33.71-.76,15.6-.7,30.68-2,8.53-12.36,16.94-25.7,8.64-13.7,17.1-28.36t16.19-29.59q7.18-13.87,13.55-27.59Q280.25,147,272.9,133.08Z" transform="translate(-30.7 -47.4)"/><polygon class="cls-2" points="172.47 58.05 144.69 58.05 116.91 58.05 101.61 85.83 129.4 85.83 157.18 85.83 141.89 113.61 114.11 113.61 86.33 113.61 71.03 141.4 55.74 169.18 83.53 169.18 98.82 141.4 126.6 141.4 154.38 141.4 169.68 113.61 184.97 85.83 200.26 58.05 172.47 58.05"/></svg>